<svg version="1.1" id="Layer_1" xmlns="http://www.w3.org/2000/svg" xmlns:xlink="http://www.w3.org/1999/xlink" x="0px" y="0px"
	 width="100%" viewBox="0 0 734 535" enable-background="new 0 0 734 535" xml:space="preserve">
<path fill="#FCFDFD" opacity="1.000000" stroke="none" 
	d="
M509.000000,536.000000 
	C339.333374,536.000000 170.166733,536.000000 1.000068,536.000000 
	C1.000045,357.666718 1.000045,179.333450 1.000023,1.000140 
	C245.666565,1.000093 490.333130,1.000093 734.999756,1.000047 
	C734.999878,179.333191 734.999878,357.666382 734.999939,535.999756 
	C659.833313,536.000000 584.666687,536.000000 509.000000,536.000000 
M486.403290,264.020111 
	C486.203644,264.328552 486.004028,264.636993 485.179596,265.171661 
	C480.459167,270.149170 475.738739,275.126678 470.446686,280.296478 
	C469.705627,281.215271 468.964539,282.134064 468.042969,283.044098 
	C468.042969,283.044098 468.052521,283.224548 467.455780,283.391663 
	C466.802185,284.197845 466.148590,285.003998 465.135345,285.922638 
	C464.907440,286.082275 464.804260,286.300781 464.255249,286.850739 
	C463.780304,287.518738 463.305359,288.186737 462.919250,288.959198 
	C462.919250,288.959198 462.884277,288.826630 462.348938,288.957703 
	C462.158447,289.256226 461.967987,289.554779 461.755768,289.853851 
	C461.755768,289.853851 461.740479,289.828430 461.135132,290.099274 
	C454.350006,297.106262 447.514557,304.065857 440.824493,311.162476 
	C439.568542,312.494812 438.893311,314.374664 437.770752,316.303711 
	C437.770752,316.303711 437.815430,316.651978 437.182281,316.950592 
	C435.651062,317.879974 433.836578,318.535461 432.632324,319.780945 
	C420.041351,332.803223 407.548187,345.920044 394.436035,359.321808 
	C390.916992,363.128693 387.397919,366.935577 383.349762,370.934296 
	C383.184662,371.256500 383.019531,371.578735 382.952148,371.859375 
	C382.952148,371.859375 382.845917,371.864532 382.217743,372.086334 
	C378.642883,375.722015 374.992798,379.287476 371.514862,383.013580 
	C368.204071,386.560669 365.072998,390.275513 361.947083,393.974731 
	C361.947083,393.974731 361.915894,393.877289 361.313782,394.058197 
	C360.539246,394.292969 359.764679,394.527710 358.682251,394.201477 
	C352.400024,388.136871 346.117767,382.072266 339.636841,375.420654 
	C338.395935,374.356384 337.155029,373.292145 335.697876,371.575592 
	C333.419312,369.448700 331.224670,367.218109 328.808044,365.261749 
	C328.132904,364.715149 326.802704,364.977783 325.448792,364.729584 
	C325.448792,364.729584 325.115784,364.612518 325.196259,363.875885 
	C323.873169,357.963440 319.133209,355.112274 314.303864,351.501678 
	C313.192474,350.264038 312.081085,349.026428 310.873260,347.438110 
	C310.733429,347.215485 310.532654,347.091644 310.164185,346.579407 
	C286.111694,323.011841 262.059174,299.444275 237.974182,275.091888 
	C238.879089,272.925812 239.247635,270.234863 240.773056,268.676025 
	C253.939789,255.220810 267.296631,241.951172 280.634460,228.663986 
	C289.436890,219.894943 289.407867,219.980423 298.416748,228.852692 
	C317.863892,248.005005 337.435486,267.031525 356.796356,286.270355 
	C359.736481,289.191925 361.670563,288.760712 364.145142,286.098907 
	C377.388641,271.853271 390.701508,257.672180 403.940582,243.422455 
	C413.893555,232.709717 423.803375,221.956207 433.627716,211.125900 
	C434.507874,210.155624 435.019196,208.487579 435.024109,207.141144 
	C435.096497,187.314529 435.090607,167.487244 434.959900,147.661072 
	C434.950745,146.269180 433.817291,144.884705 433.347717,142.715378 
	C433.361481,140.604324 433.375244,138.493286 434.096130,136.055664 
	C434.362274,133.375259 434.628387,130.694839 435.012909,127.081726 
	C435.022919,116.420242 434.843262,105.753555 435.135437,95.099815 
	C435.253754,90.785797 433.663788,89.881752 429.668610,89.892517 
	C383.523285,90.016869 337.377350,90.027847 291.232117,89.888023 
	C286.993835,89.875183 285.954132,91.222191 285.971863,95.284386 
	C286.110138,126.935966 286.019501,158.588501 286.056305,190.240662 
	C286.058167,191.827911 286.583923,193.414536 286.823547,195.828812 
	C286.838898,197.208969 286.854279,198.589127 286.368988,200.513916 
	C285.549133,203.647476 284.729279,206.781052 283.922729,209.988434 
	C283.922729,209.988434 283.946167,209.917297 283.022156,209.823334 
	C244.677368,209.865341 206.332581,209.907364 167.866928,209.650238 
	C167.866928,209.650238 167.466965,209.577347 167.466965,209.577347 
	C167.466965,209.577347 167.341278,209.982925 167.086105,210.891251 
	C167.047501,241.592422 167.008881,272.293610 166.889145,303.930298 
	C166.879456,318.591492 166.864365,333.252655 166.861984,347.913849 
	C166.860321,358.058075 166.868378,358.130402 177.197418,358.099243 
	C196.513824,358.040955 215.829926,357.889709 235.920898,357.972504 
	C236.983765,357.970551 238.046616,357.968567 239.790314,358.363159 
	C248.230331,358.436707 256.670959,358.604156 265.110138,358.550598 
	C270.693695,358.515167 276.275238,358.162689 282.557404,358.038635 
	C283.026917,358.037872 283.496399,358.037079 284.309906,358.806732 
	C284.671417,360.721008 285.314178,362.630768 285.345276,364.550385 
	C285.473602,372.460968 285.336670,380.376099 285.493439,388.285675 
	C285.525391,389.897369 286.405304,391.492249 287.022369,393.084351 
	C287.022369,393.084351 287.040924,392.957214 286.827026,393.779083 
	C286.845886,395.471802 286.864746,397.164551 286.225677,399.236206 
	C285.955566,400.992523 285.455261,402.748260 285.450500,404.505280 
	C285.394928,424.996124 285.391754,445.487244 285.442230,465.978119 
	C285.448334,468.456604 286.058899,470.937408 286.019318,473.411255 
	C285.962067,476.991241 287.708099,477.929840 290.985840,477.869263 
	C297.931061,477.740906 304.882416,477.829926 311.829376,477.944519 
	C319.591553,478.072540 327.351929,478.495667 335.112488,478.480133 
	C342.872955,478.464630 350.633759,477.846405 358.392487,477.884064 
	C371.437561,477.947327 384.480988,478.497894 397.525391,478.509338 
	C408.617065,478.519073 419.709930,477.859558 430.800751,477.900665 
	C435.343964,477.917480 436.843475,476.526337 436.784973,471.890472 
	C436.547455,453.068329 436.693268,434.241547 436.641907,415.416595 
	C436.637970,413.973419 436.199921,412.531403 436.051422,410.163605 
	C436.027008,406.765594 436.002594,403.367554 436.397095,399.280945 
	C436.482605,387.909546 436.388397,376.531647 436.796692,365.171875 
	C436.884216,362.736969 438.791260,360.367462 440.814392,358.003143 
	C479.064880,358.003143 517.315369,358.003143 555.834595,358.003143 
	C555.834595,348.902588 555.834595,340.451141 556.000671,331.073944 
	C555.936218,315.717377 555.871826,300.360809 555.962708,284.074097 
	C555.962708,259.482025 555.962708,234.889923 555.962708,209.924805 
	C550.359375,209.924805 545.233276,209.824814 540.116760,210.001404 
	C538.965576,210.041122 537.579773,210.788681 536.754761,211.646103 
	C525.456848,223.388214 514.238342,235.206863 502.486053,247.156326 
	C502.331757,247.466690 502.177460,247.777054 501.458221,248.256165 
	C501.152435,248.737335 500.846649,249.218491 500.696808,249.687088 
	C500.696808,249.687088 500.579376,249.583679 499.980042,249.833755 
	C498.216095,251.809875 496.452179,253.786011 494.819305,255.866974 
	C494.819305,255.866974 494.877563,255.709534 494.239288,255.859924 
	C493.988770,256.211487 493.738220,256.563049 493.129211,256.974854 
	C492.896149,257.129333 492.813171,257.342285 492.343933,257.845581 
	C492.158966,258.176117 491.973999,258.506653 491.885712,258.876923 
	C491.885712,258.876923 491.875244,258.772949 491.324402,258.929413 
	C491.148621,259.254486 490.972809,259.579559 490.898804,259.899261 
	C490.898804,259.899261 490.852936,259.808197 490.282104,260.008759 
	C489.793701,260.629486 489.305328,261.250214 488.908966,261.912018 
	C488.908966,261.912018 488.913818,261.811371 488.370239,261.970337 
	C488.188660,262.289795 488.007080,262.609283 487.938934,262.939117 
	C487.938934,262.939117 487.923096,262.826294 487.377655,262.975494 
	C487.201721,263.297241 487.025757,263.618988 486.950592,263.953125 
	C486.950592,263.953125 486.942474,263.851929 486.403290,264.020111 
z"/>
<path fill="#6FF9CF" opacity="1.000000" stroke="none" 
	d="
M286.869629,199.969284 
	C286.854279,198.589127 286.838898,197.208969 287.135193,195.419128 
	C287.639954,195.007523 287.833069,195.005600 288.302368,195.266876 
	C289.022797,196.564316 289.525360,198.517792 289.902466,198.493851 
	C294.894257,198.177124 300.343719,198.630783 304.670990,196.668961 
	C307.319305,195.468338 309.567566,193.976227 312.625793,193.978729 
	C352.744598,194.011551 392.863403,194.001617 432.987061,194.468353 
	C432.994202,198.068649 433.210022,201.222839 432.921844,204.330307 
	C432.737244,206.320938 432.328125,208.678741 431.120239,210.116333 
	C426.906067,215.132263 422.394501,219.911743 417.800140,224.588745 
	C415.783386,226.641846 413.294525,228.231232 411.013245,229.603607 
	C411.758392,224.121872 409.098083,222.565506 404.601013,223.014771 
	C402.136566,223.260986 399.688324,223.939743 397.231262,223.947418 
	C373.742310,224.020782 350.245544,224.303223 326.770050,223.737061 
	C321.935974,223.620453 317.410858,219.674942 311.821228,221.649658 
	C310.022491,222.285126 307.487823,218.334869 305.315704,221.573685 
	C303.979187,223.566559 303.085876,225.856674 301.692352,227.863159 
	C299.168274,225.559021 296.864441,223.481598 294.740082,221.234497 
	C290.802612,217.069580 286.756287,217.159622 283.029022,221.474472 
	C280.787323,224.069580 278.348846,226.494705 275.959229,228.635986 
	C274.533417,224.498306 271.692474,222.911514 267.821564,223.067917 
	C261.265259,223.332840 254.713669,223.921875 248.157913,223.955994 
	C226.192337,224.070297 204.225647,223.962540 182.259857,224.055237 
	C180.013962,224.064728 177.757584,224.790070 175.531113,225.293884 
	C173.340195,225.789673 171.181183,226.426361 169.004395,226.536133 
	C168.998306,224.238739 168.994644,222.406418 168.993851,220.574112 
	C168.990128,212.006104 168.990402,211.999496 177.745773,211.999329 
	C211.393616,211.998703 245.041565,212.033981 278.688995,211.916031 
	C280.443695,211.909882 282.193878,210.613190 283.946167,209.917297 
	C283.946167,209.917297 283.922729,209.988434 284.315369,209.982635 
	C288.446564,207.926163 289.072174,205.029770 286.869629,199.969284 
z"/>
<path fill="#76F7DD" opacity="1.000000" stroke="none" 
	d="
M433.388977,136.382233 
	C433.375244,138.493286 433.361481,140.604324 433.214172,143.619690 
	C433.047424,150.351822 433.014191,156.179657 432.597351,161.959534 
	C428.678528,161.278519 425.144287,160.125198 421.608002,160.118881 
	C413.833221,160.104996 406.058319,160.926834 398.281860,160.954849 
	C367.675201,161.065048 337.067810,161.037308 306.460907,160.967285 
	C300.608154,160.953903 294.647522,158.611664 289.000244,161.528656 
	C289.000763,152.373047 289.003418,143.685913 289.400726,134.991791 
	C297.573090,134.656525 305.349945,134.071823 313.128693,134.044983 
	C344.557526,133.936523 375.987946,133.860901 407.415466,134.091644 
	C415.943542,134.154266 424.463409,135.333740 433.088379,136.095139 
	C433.189697,136.189667 433.388977,136.382233 433.388977,136.382233 
z"/>
<path fill="#85F4E5" opacity="1.000000" stroke="none" 
	d="
M289.006104,134.998779 
	C289.003418,143.685913 289.000763,152.373047 288.997986,161.997620 
	C288.673981,173.624603 288.350067,184.314148 288.026184,195.003693 
	C287.833069,195.005600 287.639954,195.007523 287.156311,195.005447 
	C286.583923,193.414536 286.058167,191.827911 286.056305,190.240662 
	C286.019501,158.588501 286.110138,126.935966 285.971863,95.284386 
	C285.954132,91.222191 286.993835,89.875183 291.232117,89.888023 
	C337.377350,90.027847 383.523285,90.016869 429.668610,89.892517 
	C433.663788,89.881752 435.253754,90.785797 435.135437,95.099815 
	C434.843262,105.753555 435.022919,116.420242 434.638947,127.544281 
	C433.843323,128.008011 433.421661,128.009186 432.998749,127.581528 
	C432.006348,121.965103 431.466827,116.637070 429.908569,111.625824 
	C428.003448,105.499031 423.234131,104.540039 418.173706,108.177254 
	C416.082184,109.680550 413.209229,110.866081 410.684326,110.880203 
	C378.703125,111.059090 346.720581,110.997757 314.738373,110.998222 
	C313.405792,110.998245 311.958679,110.664398 310.761566,111.068542 
	C306.756226,112.420738 303.517975,111.421577 300.166565,108.997345 
	C299.123322,108.242729 295.843170,108.706459 295.140961,109.705093 
	C293.014648,112.728874 290.906250,116.133179 290.167633,119.676216 
	C289.131134,124.648376 289.333588,129.878815 289.006104,134.998779 
z"/>
<path fill="#2EAF79" opacity="1.000000" stroke="none" 
	d="
M437.815430,316.651978 
	C437.815430,316.651978 437.770752,316.303711 438.266022,316.153442 
	C441.472626,316.949249 444.127625,318.386505 446.910858,318.705688 
	C449.789581,319.035828 452.792236,318.043427 455.741577,318.036865 
	C483.636078,317.974945 511.530853,317.965302 539.425293,318.048676 
	C542.532654,318.057953 545.647278,318.675262 548.741943,319.124634 
	C552.573975,319.681183 554.580383,321.578217 554.096497,325.845215 
	C553.870239,327.840820 554.656677,329.951263 554.986328,332.411133 
	C554.965637,333.882660 554.942688,334.952698 554.718384,336.130890 
	C554.269226,336.434906 554.098572,336.683746 553.651978,337.045868 
	C550.835632,340.565247 547.418091,341.094025 543.366760,341.078430 
	C508.469452,340.944092 473.571350,341.036621 438.673706,340.955719 
	C434.396637,340.945801 430.124390,340.259796 425.843292,339.992279 
	C423.736725,339.860626 421.615112,339.969482 418.527161,339.969482 
	C423.903809,331.019989 430.561523,323.898499 439.362061,318.727051 
	C438.773438,317.937286 438.294434,317.294647 437.815430,316.651978 
z"/>
<path fill="#38B580" opacity="1.000000" stroke="none" 
	d="
M437.498840,316.801270 
	C438.294434,317.294647 438.773438,317.937286 439.362061,318.727051 
	C430.561523,323.898499 423.903809,331.019989 418.527161,339.969482 
	C421.615112,339.969482 423.736725,339.860626 425.843292,339.992279 
	C430.124390,340.259796 434.396637,340.945801 438.673706,340.955719 
	C473.571350,341.036621 508.469452,340.944092 543.366760,341.078430 
	C547.418091,341.094025 550.835632,340.565247 553.861389,336.945557 
	C554.689453,336.596069 554.854675,336.342010 554.919739,336.022736 
	C554.942688,334.952698 554.965637,333.882660 555.198975,332.404755 
	C555.409302,331.996887 555.834595,331.999695 555.834595,331.999695 
	C555.834595,340.451141 555.834595,348.902588 555.834595,358.003143 
	C517.315369,358.003143 479.064880,358.003143 439.945618,357.923950 
	C438.007324,357.897980 436.937866,357.951202 435.500549,357.821106 
	C433.357574,357.425293 431.569275,356.953003 429.809479,357.042328 
	C418.212219,357.630981 406.621094,358.340546 395.027954,359.010681 
	C407.548187,345.920044 420.041351,332.803223 432.632324,319.780945 
	C433.836578,318.535461 435.651062,317.879974 437.498840,316.801270 
z"/>
<path fill="#2CA673" opacity="1.000000" stroke="none" 
	d="
M555.917603,331.536804 
	C555.834595,331.999695 555.409302,331.996887 555.196716,332.003296 
	C554.656677,329.951263 553.870239,327.840820 554.096497,325.845215 
	C554.580383,321.578217 552.573975,319.681183 548.741943,319.124634 
	C545.647278,318.675262 542.532654,318.057953 539.425293,318.048676 
	C511.530853,317.965302 483.636078,317.974945 455.741577,318.036865 
	C452.792236,318.043427 449.789581,319.035828 446.910858,318.705688 
	C444.127625,318.386505 441.472626,316.949249 438.355713,316.002502 
	C438.893311,314.374664 439.568542,312.494812 440.824493,311.162476 
	C447.514557,304.065857 454.350006,297.106262 461.538696,290.315857 
	C462.121613,291.476166 462.699829,292.582092 462.395996,293.329407 
	C461.789429,294.821533 460.699097,296.116974 459.808502,297.493652 
	C461.737793,297.666321 463.664734,297.876495 465.597260,297.997528 
	C466.758698,298.070282 467.928833,298.000610 469.095062,298.000580 
	C486.589020,297.999817 504.083771,297.898468 521.576599,298.040222 
	C531.198853,298.118195 540.816956,298.700195 550.439331,298.788025 
	C551.635010,298.798950 553.686096,297.332794 553.897034,296.265594 
	C554.629700,292.560120 554.726013,288.728821 555.250000,284.957458 
	C555.435608,284.969574 555.807373,285.004242 555.807373,285.004242 
	C555.871826,300.360809 555.936218,315.717377 555.917603,331.536804 
z"/>
<path fill="#40C88F" opacity="1.000000" stroke="none" 
	d="
M435.978180,399.969543 
	C436.002594,403.367554 436.027008,406.765594 435.957336,411.022217 
	C435.245819,413.608551 434.628326,415.336304 434.006927,416.794403 
	C433.999725,416.345001 433.996429,416.165253 433.996765,415.543549 
	C433.991699,413.438232 434.124298,411.759888 433.950195,410.114044 
	C433.167694,402.717712 429.609070,398.852478 424.032684,399.195679 
	C419.579895,399.469757 415.128052,399.924377 410.672852,399.963135 
	C398.448883,400.069519 386.221710,400.121735 373.999023,399.956665 
	C365.444550,399.841125 356.895630,399.080261 348.343842,399.073395 
	C340.235657,399.066864 332.129669,399.821320 324.017883,399.960266 
	C314.206055,400.128296 304.388794,400.052368 294.574707,399.975952 
	C290.720978,399.945923 288.619812,401.215393 288.946503,405.507996 
	C289.210785,408.981171 288.997681,412.490631 288.751465,416.155212 
	C288.335083,416.885498 288.163574,417.444580 287.720337,417.692871 
	C287.260284,411.207153 287.071930,405.032196 286.883606,398.857269 
	C286.864746,397.164551 286.845886,395.471802 287.210541,393.101227 
	C288.062286,389.945618 288.530548,387.467896 289.448853,384.993286 
	C305.743835,386.447266 321.581879,386.963806 338.473328,383.279663 
	C338.473328,382.916931 338.307434,381.138824 338.531067,379.411194 
	C338.682678,378.240021 339.381470,377.139679 339.835541,376.007660 
	C346.117767,382.072266 352.400024,388.136871 358.881897,394.850220 
	C359.658417,395.918549 360.235321,396.338165 360.812256,396.757782 
	C361.180145,395.797607 361.548004,394.837463 361.915894,393.877289 
	C361.915894,393.877289 361.947083,393.974731 362.260956,393.942810 
	C369.233307,388.961029 376.999329,389.300598 384.670563,389.382446 
	C396.442627,389.508087 408.279816,390.593231 419.959106,389.653076 
	C426.782166,389.103851 431.259064,390.545593 434.836609,396.348419 
	C435.247223,397.787201 435.612701,398.878357 435.978180,399.969543 
z"/>
<path fill="#269F6C" opacity="1.000000" stroke="none" 
	d="
M555.064331,284.945374 
	C554.726013,288.728821 554.629700,292.560120 553.897034,296.265594 
	C553.686096,297.332794 551.635010,298.798950 550.439331,298.788025 
	C540.816956,298.700195 531.198853,298.118195 521.576599,298.040222 
	C504.083771,297.898468 486.589020,297.999817 469.095062,298.000580 
	C467.928833,298.000610 466.758698,298.070282 465.597260,297.997528 
	C463.664734,297.876495 461.737793,297.666321 459.808502,297.493652 
	C460.699097,296.116974 461.789429,294.821533 462.395996,293.329407 
	C462.699829,292.582092 462.121613,291.476166 461.841370,290.180420 
	C461.740479,289.828430 461.755768,289.853851 462.034546,289.788605 
	C462.503662,289.424469 462.693970,289.125549 462.884277,288.826630 
	C462.884277,288.826630 462.919250,288.959198 463.242950,288.900269 
	C463.986359,288.086945 464.406067,287.332550 464.825775,286.578156 
	C464.804260,286.300781 464.907440,286.082275 465.687988,285.895203 
	C466.844604,284.986725 467.448578,284.105621 468.052521,283.224548 
	C468.052521,283.224548 468.042969,283.044098 468.470123,283.031494 
	C469.632385,282.340485 470.367493,281.662048 471.497467,280.987183 
	C474.266815,280.009460 476.641296,279.028198 478.450500,278.280518 
	C480.710236,278.832428 483.097076,279.906616 485.491089,279.922760 
	C505.571472,280.058441 525.653381,279.961304 545.734314,280.044830 
	C548.509399,280.056366 551.281982,280.672607 554.078186,281.350220 
	C554.421875,282.776184 554.743103,283.860779 555.064331,284.945374 
z"/>
<path fill="#229867" opacity="1.000000" stroke="none" 
	d="
M554.055725,281.008881 
	C551.281982,280.672607 548.509399,280.056366 545.734314,280.044830 
	C525.653381,279.961304 505.571472,280.058441 485.491089,279.922760 
	C483.097076,279.906616 480.710236,278.832428 478.450500,278.280518 
	C476.641296,279.028198 474.266815,280.009460 471.472717,280.767700 
	C471.053070,280.544678 471.018341,280.104187 471.018311,280.104187 
	C475.738739,275.126678 480.459167,270.149170 485.751770,264.959839 
	C486.530121,264.449341 486.736298,264.150635 486.942444,263.851929 
	C486.942474,263.851929 486.950592,263.953125 487.155640,263.845764 
	C487.548126,263.434387 487.735596,263.130341 487.923096,262.826294 
	C487.923096,262.826294 487.938934,262.939117 488.142273,262.835632 
	C488.535004,262.425232 488.724396,262.118286 488.913818,261.811371 
	C488.913818,261.811371 488.908966,261.912018 489.215271,261.891174 
	C489.965363,261.182953 490.409149,260.495575 490.852936,259.808197 
	C490.852936,259.808197 490.898804,259.899261 491.115845,259.811523 
	C491.513641,259.406860 491.694427,259.089905 491.875244,258.772949 
	C491.875244,258.772949 491.885712,258.876923 492.135254,258.901825 
	C492.584930,258.930573 492.785126,258.934418 493.294250,259.113220 
	C494.408508,260.454681 495.213837,261.621246 496.158905,262.990234 
	C515.812744,262.990234 535.388428,262.990234 554.978394,263.458496 
	C554.680298,269.620789 554.367981,275.314850 554.055725,281.008881 
M493.623047,264.339874 
	C493.222900,264.932526 492.822723,265.525177 492.422577,266.117859 
	C492.811218,266.258514 493.199829,266.399170 493.588440,266.539825 
	C493.801788,265.816895 494.015167,265.093964 493.623047,264.339874 
M475.516785,278.413239 
	C475.516785,278.413239 475.582153,278.523621 475.516785,278.413239 
z"/>
<path fill="#69E1B1" opacity="1.000000" stroke="none" 
	d="
M434.010864,417.064056 
	C434.628326,415.336304 435.245819,413.608551 435.913452,411.484863 
	C436.199921,412.531403 436.637970,413.973419 436.641907,415.416595 
	C436.693268,434.241547 436.547455,453.068329 436.784973,471.890472 
	C436.843475,476.526337 435.343964,477.917480 430.800751,477.900665 
	C419.709930,477.859558 408.617065,478.519073 397.525391,478.509338 
	C384.480988,478.497894 371.437561,477.947327 358.392487,477.884064 
	C350.633759,477.846405 342.872955,478.464630 335.112488,478.480133 
	C327.351929,478.495667 319.591553,478.072540 311.829376,477.944519 
	C304.882416,477.829926 297.931061,477.740906 290.985840,477.869263 
	C287.708099,477.929840 285.962067,476.991241 286.019318,473.411255 
	C286.058899,470.937408 285.448334,468.456604 285.442230,465.978119 
	C285.391754,445.487244 285.394928,424.996124 285.450500,404.505280 
	C285.455261,402.748260 285.955566,400.992523 286.554626,399.046753 
	C287.071930,405.032196 287.260284,411.207153 287.716187,418.146057 
	C288.318451,424.277863 288.653107,429.645630 288.984497,435.480164 
	C288.985413,441.967438 288.989532,447.988007 288.991119,454.475983 
	C288.992493,459.609589 288.666656,464.312134 289.175507,468.922577 
	C289.358826,470.583740 291.498718,473.299744 292.829773,473.350983 
	C299.866302,473.621735 306.929321,473.049927 313.983643,473.037292 
	C345.980011,472.979919 377.976501,473.012299 409.972961,473.012085 
	C415.472351,473.012054 420.971771,472.998077 426.471130,473.013855 
	C430.839386,473.026398 433.406708,471.463440 433.070618,466.502014 
	C432.789703,462.354828 433.012482,458.173523 433.013977,453.567078 
	C433.347809,447.423187 433.679871,441.719513 434.016815,435.546631 
	C434.018097,429.072937 434.014496,423.068512 434.010864,417.064056 
z"/>
<path fill="#1C8658" opacity="1.000000" stroke="none" 
	d="
M554.078186,281.350220 
	C554.367981,275.314850 554.680298,269.620789 554.993591,262.999512 
	C554.667542,257.811310 553.988098,253.540710 554.104858,249.291962 
	C554.243164,244.255890 551.549866,242.991379 547.328247,242.997879 
	C540.375183,243.008591 533.420471,243.081573 526.470032,242.946976 
	C524.550964,242.909805 522.468933,242.595749 520.764954,241.777283 
	C515.577393,239.285645 512.367859,240.084442 508.996460,244.950027 
	C507.567291,247.012589 505.959534,249.137222 503.000366,247.006714 
	C514.238342,235.206863 525.456848,223.388214 536.754761,211.646103 
	C537.579773,210.788681 538.965576,210.041122 540.116760,210.001404 
	C545.233276,209.824814 550.359375,209.924805 555.962708,209.924805 
	C555.962708,234.889923 555.962708,259.482025 555.885010,284.539185 
	C555.807373,285.004242 555.435608,284.969574 555.250000,284.957458 
	C554.743103,283.860779 554.421875,282.776184 554.078186,281.350220 
z"/>
<path fill="#3BBF86" opacity="1.000000" stroke="none" 
	d="
M394.731995,359.166260 
	C406.621094,358.340546 418.212219,357.630981 429.809479,357.042328 
	C431.569275,356.953003 433.357574,357.425293 435.496887,358.288879 
	C435.773254,367.955872 435.685394,376.971832 435.417328,385.677704 
	C434.814270,379.305176 429.833435,380.225159 426.280670,380.122528 
	C414.966278,379.795776 403.636566,380.000641 392.312775,380.000000 
	C384.564606,379.999573 384.529083,379.968903 382.845917,371.864532 
	C382.845917,371.864532 382.952148,371.859375 383.164185,371.780121 
	C383.543793,371.381409 383.711334,371.061920 383.878876,370.742462 
	C387.397919,366.935577 390.916992,363.128693 394.731995,359.166260 
z"/>
<path fill="#1F9060" opacity="1.000000" stroke="none" 
	d="
M502.743225,247.081528 
	C505.959534,249.137222 507.567291,247.012589 508.996460,244.950027 
	C512.367859,240.084442 515.577393,239.285645 520.764954,241.777283 
	C522.468933,242.595749 524.550964,242.909805 526.470032,242.946976 
	C533.420471,243.081573 540.375183,243.008591 547.328247,242.997879 
	C551.549866,242.991379 554.243164,244.255890 554.104858,249.291962 
	C553.988098,253.540710 554.667542,257.811310 554.979370,262.531250 
	C535.388428,262.990234 515.812744,262.990234 496.158905,262.990234 
	C495.213837,261.621246 494.408508,260.454681 493.271790,258.782166 
	C492.920410,258.055359 492.900360,257.834534 492.880280,257.613708 
	C492.813171,257.342285 492.896149,257.129333 493.629028,256.859070 
	C494.378448,256.398743 494.628021,256.054138 494.877563,255.709534 
	C494.877563,255.709534 494.819305,255.866974 495.137848,255.860016 
	C498.815155,255.112457 501.054871,253.457428 500.579376,249.583679 
	C500.579376,249.583679 500.696808,249.687088 500.939453,249.680420 
	C501.462433,249.144974 501.742798,248.616196 502.023163,248.087418 
	C502.177460,247.777054 502.331757,247.466690 502.743225,247.081528 
z"/>
<path fill="#2CA673" opacity="1.000000" stroke="none" 
	d="
M238.006668,275.876709 
	C262.059174,299.444275 286.111694,323.011841 309.919128,346.929016 
	C309.440155,347.841248 309.206268,348.403870 308.699280,348.767792 
	C305.949585,346.372589 303.432129,344.219971 301.010651,341.964355 
	C299.366364,340.432739 297.876556,338.736633 296.281830,337.150085 
	C294.207703,335.086517 292.098022,333.058655 289.856293,330.710693 
	C286.925323,327.610504 284.267548,324.674286 281.330750,322.050323 
	C275.959778,317.251495 270.784302,312.285919 262.372467,313.875549 
	C257.048615,314.881653 251.497986,314.841492 246.042343,314.959412 
	C238.385666,315.124939 238.388199,315.002533 236.588379,322.324768 
	C236.519913,322.603271 236.156540,322.809265 235.708130,322.702728 
	C235.361923,313.908661 235.238174,305.460938 235.142670,296.544617 
	C235.436493,289.053528 235.702042,282.031067 236.232407,275.101990 
	C237.000366,275.422516 237.503525,275.649597 238.006668,275.876709 
z"/>
<path fill="#84EDCF" opacity="1.000000" stroke="none" 
	d="
M237.990417,275.484314 
	C237.503525,275.649597 237.000366,275.422516 236.246674,275.101593 
	C235.996109,275.007782 236.015793,275.025665 235.832443,274.829529 
	C235.148590,274.504669 234.648102,274.375916 234.112411,273.871124 
	C234.054565,272.992065 234.031906,272.489044 234.011536,271.745453 
	C234.013855,271.504883 234.018234,271.023743 234.285675,270.826843 
	C237.700500,267.414673 240.847900,264.199402 244.296600,260.843750 
	C252.737213,252.142609 260.876556,243.581833 269.343201,234.984695 
	C270.781616,233.966812 271.892761,232.985291 273.283600,231.871445 
	C274.375153,230.824829 275.186981,229.910522 275.998779,228.996216 
	C278.348846,226.494705 280.787323,224.069580 283.029022,221.474472 
	C286.756287,217.159622 290.802612,217.069580 294.740082,221.234497 
	C296.864441,223.481598 299.168274,225.559021 301.838989,228.162048 
	C305.391968,231.541061 308.437622,234.537415 311.616699,237.384842 
	C316.010590,241.320435 320.504974,245.143829 324.976685,249.380127 
	C327.544037,252.617981 329.984131,255.595398 332.663269,258.339355 
	C336.632294,262.404449 340.759857,266.315308 344.840302,270.270813 
	C349.098236,274.398376 353.287323,278.606842 357.736694,282.518066 
	C358.547150,283.230499 361.076508,283.308899 361.774261,282.623383 
	C368.641754,275.876343 375.289764,268.905884 382.297363,261.858154 
	C383.400482,260.487244 384.206238,259.256958 385.370361,257.980347 
	C387.827393,255.626465 389.926056,253.318970 392.281616,250.903564 
	C393.026184,250.528137 393.513794,250.260605 394.246277,249.826691 
	C394.664459,249.107193 394.837799,248.554092 395.159668,247.703949 
	C400.545502,241.614990 405.782776,235.823074 411.020020,230.031158 
	C413.294525,228.231232 415.783386,226.641846 417.800140,224.588745 
	C422.394501,219.911743 426.906067,215.132263 431.120239,210.116333 
	C432.328125,208.678741 432.737244,206.320938 432.921844,204.330307 
	C433.210022,201.222839 432.994202,198.068649 432.992279,193.999420 
	C432.988770,182.712234 432.984863,172.359863 432.980957,162.007492 
	C433.014191,156.179657 433.047424,150.351822 433.143677,144.010376 
	C433.817291,144.884705 434.950745,146.269180 434.959900,147.661072 
	C435.090607,167.487244 435.096497,187.314529 435.024109,207.141144 
	C435.019196,208.487579 434.507874,210.155624 433.627716,211.125900 
	C423.803375,221.956207 413.893555,232.709717 403.940582,243.422455 
	C390.701508,257.672180 377.388641,271.853271 364.145142,286.098907 
	C361.670563,288.760712 359.736481,289.191925 356.796356,286.270355 
	C337.435486,267.031525 317.863892,248.005005 298.416748,228.852692 
	C289.407867,219.980423 289.436890,219.894943 280.634460,228.663986 
	C267.296631,241.951172 253.939789,255.220810 240.773056,268.676025 
	C239.247635,270.234863 238.879089,272.925812 237.990417,275.484314 
z"/>
<path fill="#3BC389" opacity="1.000000" stroke="none" 
	d="
M339.736206,375.714172 
	C339.381470,377.139679 338.682678,378.240021 338.531067,379.411194 
	C338.307434,381.138824 338.473328,382.916931 338.473328,383.279663 
	C321.581879,386.963806 305.743835,386.447266 289.448303,384.526306 
	C288.998688,380.240417 289.165131,376.415314 288.950500,372.611725 
	C288.764038,369.307098 289.649292,367.798157 293.329773,367.925568 
	C300.561768,368.175964 307.810883,368.102692 315.048431,367.950439 
	C318.703613,367.873566 322.348999,367.331665 326.244873,367.001282 
	C326.490967,367.002563 326.983093,367.007324 326.987976,367.379028 
	C327.616730,373.925507 332.015656,372.578094 335.914093,372.227905 
	C337.155029,373.292145 338.395935,374.356384 339.736206,375.714172 
z"/>
<path fill="#3FC78E" opacity="1.000000" stroke="none" 
	d="
M382.531830,371.975433 
	C384.529083,379.968903 384.564606,379.999573 392.312775,380.000000 
	C403.636566,380.000641 414.966278,379.795776 426.280670,380.122528 
	C429.833435,380.225159 434.814270,379.305176 435.502930,386.118347 
	C435.442963,389.912994 435.117188,392.956909 434.791443,396.000824 
	C431.259064,390.545593 426.782166,389.103851 419.959106,389.653076 
	C408.279816,390.593231 396.442627,389.508087 384.670563,389.382446 
	C376.999329,389.300598 369.233307,388.961029 362.218872,393.913727 
	C365.072998,390.275513 368.204071,386.560669 371.514862,383.013580 
	C374.992798,379.287476 378.642883,375.722015 382.531830,371.975433 
z"/>
<path fill="#3EB885" opacity="1.000000" stroke="none" 
	d="
M325.998810,367.000000 
	C322.348999,367.331665 318.703613,367.873566 315.048431,367.950439 
	C307.810883,368.102692 300.561768,368.175964 293.329773,367.925568 
	C289.649292,367.798157 288.764038,369.307098 288.950500,372.611725 
	C289.165131,376.415314 288.998688,380.240417 288.998260,384.523163 
	C288.530548,387.467896 288.062286,389.945618 287.317505,392.690308 
	C287.040924,392.957214 287.022369,393.084351 287.050293,392.619995 
	C287.093170,382.116638 287.113373,372.077667 287.118774,362.038666 
	C287.119934,359.896332 287.489563,357.421082 283.965912,358.036285 
	C283.496399,358.037079 283.026917,358.037872 281.756165,357.938507 
	C267.006470,357.881104 253.057968,357.923828 239.109482,357.966583 
	C238.046616,357.968567 236.983765,357.970551 235.547836,357.598694 
	C235.163452,356.855408 235.152145,356.485962 235.351959,356.076691 
	C235.563095,356.036865 235.988724,355.977692 236.268921,355.799744 
	C238.732101,355.414520 240.918854,354.995453 243.097473,355.034088 
	C258.176666,355.301514 273.253510,355.697327 288.332520,355.977081 
	C293.147217,356.066406 298.211548,356.832397 302.705963,355.611359 
	C306.344666,354.622833 308.871460,355.327576 311.776764,356.756317 
	C312.501373,357.112701 313.374237,357.167664 314.717499,357.490662 
	C313.993011,355.224121 313.476379,353.607788 313.238831,351.974792 
	C313.883087,351.993347 314.248291,352.028595 314.613464,352.063812 
	C319.133209,355.112274 323.873169,357.963440 325.200745,364.563202 
	C325.469757,365.833679 325.734283,366.416840 325.998810,367.000000 
M316.636169,359.555542 
	C316.940430,359.170471 317.244690,358.785370 317.548950,358.400269 
	C317.176331,358.200714 316.803741,358.001129 316.431122,357.801544 
	C316.372070,358.254944 316.312988,358.708313 316.636169,359.555542 
z"/>
<path fill="#84EDCF" opacity="1.000000" stroke="none" 
	d="
M283.484161,209.870331 
	C282.193878,210.613190 280.443695,211.909882 278.688995,211.916031 
	C245.041565,212.033981 211.393616,211.998703 177.745773,211.999329 
	C168.990402,211.999496 168.990128,212.006104 168.993851,220.574112 
	C168.994644,222.406418 168.998306,224.238739 169.001068,227.004639 
	C169.005402,237.626297 169.009293,247.314377 169.005798,257.430786 
	C168.706207,268.911865 168.414001,279.964630 168.096436,291.476105 
	C168.064194,295.619659 168.057281,299.304535 167.780334,302.991211 
	C167.330307,302.993591 167.150284,302.994202 166.970276,302.994781 
	C167.008881,272.293610 167.047501,241.592422 167.374329,210.434875 
	C167.662537,209.978516 167.987793,209.949371 167.987793,209.949371 
	C206.332581,209.907364 244.677368,209.865341 283.484161,209.870331 
z"/>
<path fill="#7EEDC3" opacity="1.000000" stroke="none" 
	d="
M166.929718,303.462524 
	C167.150284,302.994202 167.330307,302.993591 168.062195,303.296448 
	C168.739426,305.243317 168.969879,306.886536 168.973618,308.530273 
	C169.004913,322.333191 169.072937,336.136932 168.939835,349.938599 
	C168.907974,353.242554 169.251160,355.438232 173.363983,355.154633 
	C175.288940,355.021881 177.267960,355.945465 179.224380,355.953979 
	C195.521545,356.025116 211.819183,355.989624 228.116669,355.999969 
	C230.458069,356.001465 232.799438,356.075836 235.140823,356.116516 
	C235.152145,356.485962 235.163452,356.855408 235.160461,357.500977 
	C215.829926,357.889709 196.513824,358.040955 177.197418,358.099243 
	C166.868378,358.130402 166.860321,358.058075 166.861984,347.913849 
	C166.864365,333.252655 166.879456,318.591492 166.929718,303.462524 
z"/>
<path fill="#69E1B1" opacity="1.000000" stroke="none" 
	d="
M284.137909,358.421509 
	C287.489563,357.421082 287.119934,359.896332 287.118774,362.038666 
	C287.113373,372.077667 287.093170,382.116638 286.986267,392.625244 
	C286.405304,391.492249 285.525391,389.897369 285.493439,388.285675 
	C285.336670,380.376099 285.473602,372.460968 285.345276,364.550385 
	C285.314178,362.630768 284.671417,360.721008 284.137909,358.421509 
z"/>
<path fill="#69E1B1" opacity="1.000000" stroke="none" 
	d="
M434.836609,396.348419 
	C435.117188,392.956909 435.442963,389.912994 435.683105,386.428436 
	C435.685394,376.971832 435.773254,367.955872 435.864746,358.472168 
	C436.937866,357.951202 438.007324,357.897980 439.468445,357.906281 
	C438.791260,360.367462 436.884216,362.736969 436.796692,365.171875 
	C436.388397,376.531647 436.482605,387.909546 436.187622,399.625244 
	C435.612701,398.878357 435.247223,397.787201 434.836609,396.348419 
z"/>
<path fill="#69E1B1" opacity="1.000000" stroke="none" 
	d="
M239.449890,358.164856 
	C253.057968,357.923828 267.006470,357.881104 281.406311,357.895264 
	C276.275238,358.162689 270.693695,358.515167 265.110138,358.550598 
	C256.670959,358.604156 248.230331,358.436707 239.449890,358.164856 
z"/>
<path fill="#3EB885" opacity="1.000000" stroke="none" 
	d="
M335.805969,371.901733 
	C332.015656,372.578094 327.616730,373.925507 326.960938,367.051575 
	C326.543701,365.857971 326.158356,365.363586 325.772980,364.869202 
	C326.802704,364.977783 328.132904,364.715149 328.808044,365.261749 
	C331.224670,367.218109 333.419312,369.448700 335.805969,371.901733 
z"/>
<path fill="#85F4E5" opacity="1.000000" stroke="none" 
	d="
M286.619324,200.241608 
	C289.072174,205.029770 288.446564,207.926163 284.308716,209.945724 
	C284.729279,206.781052 285.549133,203.647476 286.619324,200.241608 
z"/>
<path fill="#1C8658" opacity="1.000000" stroke="none" 
	d="
M500.279724,249.708710 
	C501.054871,253.457428 498.815155,255.112457 495.072327,255.807587 
	C496.452179,253.786011 498.216095,251.809875 500.279724,249.708710 
z"/>
<path fill="#84EDCF" opacity="1.000000" stroke="none" 
	d="
M433.000000,128.010376 
	C433.421661,128.009186 433.843323,128.008011 434.579742,128.010635 
	C434.628387,130.694839 434.362274,133.375259 433.742554,136.218948 
	C433.388977,136.382233 433.189697,136.189667 433.093628,135.651169 
	C432.998383,132.745239 432.999207,130.377808 433.000000,128.010376 
z"/>
<path fill="#2CA673" opacity="1.000000" stroke="none" 
	d="
M314.458679,351.782745 
	C314.248291,352.028595 313.883087,351.993347 313.013489,351.971191 
	C312.509064,351.984283 312.057373,351.981750 312.013794,351.622467 
	C311.636719,350.105042 311.303223,348.946930 310.969696,347.788788 
	C312.081085,349.026428 313.192474,350.264038 314.458679,351.782745 
z"/>
<path fill="#3EB885" opacity="1.000000" stroke="none" 
	d="
M310.921478,347.613464 
	C311.303223,348.946930 311.636719,350.105042 311.664551,351.629852 
	C310.894775,351.995270 310.430634,351.994019 309.955200,351.697662 
	C309.629242,350.938324 309.314636,350.474030 308.995514,349.748901 
	C308.984833,349.314178 308.978607,349.140350 308.972412,348.966522 
	C309.206268,348.403870 309.440155,347.841248 309.972473,347.172607 
	C310.532654,347.091644 310.733429,347.215485 310.921478,347.613464 
z"/>
<path fill="#3FC78E" opacity="1.000000" stroke="none" 
	d="
M361.614838,393.967743 
	C361.548004,394.837463 361.180145,395.797607 360.812256,396.757782 
	C360.235321,396.338165 359.658417,395.918549 359.035828,395.130707 
	C359.764679,394.527710 360.539246,394.292969 361.614838,393.967743 
z"/>
<path fill="#2CA673" opacity="1.000000" stroke="none" 
	d="
M470.732513,280.200317 
	C471.018341,280.104187 471.053070,280.544678 471.077820,280.764160 
	C470.367493,281.662048 469.632385,282.340485 468.560364,283.035889 
	C468.964539,282.134064 469.705627,281.215271 470.732513,280.200317 
z"/>
<path fill="#2CA673" opacity="1.000000" stroke="none" 
	d="
M467.754150,283.308105 
	C467.448578,284.105621 466.844604,284.986725 465.867828,285.838989 
	C466.148590,285.003998 466.802185,284.197845 467.754150,283.308105 
z"/>
<path fill="#2CA673" opacity="1.000000" stroke="none" 
	d="
M464.540527,286.714447 
	C464.406067,287.332550 463.986359,288.086945 463.198547,288.848022 
	C463.305359,288.186737 463.780304,287.518738 464.540527,286.714447 
z"/>
<path fill="#40C88F" opacity="1.000000" stroke="none" 
	d="
M325.610901,364.799377 
	C326.158356,365.363586 326.543701,365.857971 326.956085,366.679840 
	C326.983093,367.007324 326.490967,367.002563 326.244873,367.001282 
	C325.734283,366.416840 325.469757,365.833679 325.160492,364.931519 
	C325.115784,364.612518 325.448792,364.729584 325.610901,364.799377 
z"/>
<path fill="#1F9060" opacity="1.000000" stroke="none" 
	d="
M490.567505,259.908478 
	C490.409149,260.495575 489.965363,261.182953 489.169250,261.870636 
	C489.305328,261.250214 489.793701,260.629486 490.567505,259.908478 
z"/>
<path fill="#1C8658" opacity="1.000000" stroke="none" 
	d="
M501.740723,248.171799 
	C501.742798,248.616196 501.462433,249.144974 500.861450,249.686707 
	C500.846649,249.218491 501.152435,248.737335 501.740723,248.171799 
z"/>
<path fill="#3FC78E" opacity="1.000000" stroke="none" 
	d="
M383.614319,370.838379 
	C383.711334,371.061920 383.543793,371.381409 383.115326,371.800903 
	C383.019531,371.578735 383.184662,371.256500 383.614319,370.838379 
z"/>
<path fill="#85F4E5" opacity="1.000000" stroke="none" 
	d="
M167.927368,209.799805 
	C167.987793,209.949371 167.662537,209.978516 167.501907,209.980713 
	C167.341278,209.982925 167.466965,209.577347 167.466965,209.577347 
	C167.466965,209.577347 167.866928,209.650238 167.927368,209.799805 
z"/>
<path fill="#1C8658" opacity="1.000000" stroke="none" 
	d="
M494.558411,255.784729 
	C494.628021,256.054138 494.378448,256.398743 493.808289,256.828949 
	C493.738220,256.563049 493.988770,256.211487 494.558411,255.784729 
z"/>
<path fill="#1C8658" opacity="1.000000" stroke="none" 
	d="
M492.612122,257.729645 
	C492.900360,257.834534 492.920410,258.055359 492.962860,258.607208 
	C492.785126,258.934418 492.584930,258.930573 492.086914,258.881958 
	C491.973999,258.506653 492.158966,258.176117 492.612122,257.729645 
z"/>
<path fill="#1F9060" opacity="1.000000" stroke="none" 
	d="
M491.599792,258.851166 
	C491.694427,259.089905 491.513641,259.406860 491.064941,259.814209 
	C490.972809,259.579559 491.148621,259.254486 491.599792,258.851166 
z"/>
<path fill="#1F9060" opacity="1.000000" stroke="none" 
	d="
M488.642029,261.890869 
	C488.724396,262.118286 488.535004,262.425232 488.085541,262.830475 
	C488.007080,262.609283 488.188660,262.289795 488.642029,261.890869 
z"/>
<path fill="#1F9060" opacity="1.000000" stroke="none" 
	d="
M487.650360,262.900879 
	C487.735596,263.130341 487.548126,263.434387 487.105225,263.839600 
	C487.025757,263.618988 487.201721,263.297241 487.650360,262.900879 
z"/>
<path fill="#1F9060" opacity="1.000000" stroke="none" 
	d="
M486.672852,263.936035 
	C486.736298,264.150635 486.530121,264.449341 486.064148,264.846741 
	C486.004028,264.636993 486.203644,264.328552 486.672852,263.936035 
z"/>
<path fill="#2CA673" opacity="1.000000" stroke="none" 
	d="
M462.616608,288.892151 
	C462.693970,289.125549 462.503662,289.424469 462.045410,289.788330 
	C461.967987,289.554779 462.158447,289.256226 462.616608,288.892151 
z"/>
<path fill="#71F9D7" opacity="1.000000" stroke="none" 
	d="
M432.597351,161.959534 
	C432.984863,172.359863 432.988770,182.712234 432.987457,193.533524 
	C392.863403,194.001617 352.744598,194.011551 312.625793,193.978729 
	C309.567566,193.976227 307.319305,195.468338 304.670990,196.668961 
	C300.343719,198.630783 294.894257,198.177124 289.902466,198.493851 
	C289.525360,198.517792 289.022797,196.564316 288.302368,195.266876 
	C288.350067,184.314148 288.673981,173.624603 289.000183,162.466095 
	C294.647522,158.611664 300.608154,160.953903 306.460907,160.967285 
	C337.067810,161.037308 367.675201,161.065048 398.281860,160.954849 
	C406.058319,160.926834 413.833221,160.104996 421.608002,160.118881 
	C425.144287,160.125198 428.678528,161.278519 432.597351,161.959534 
z"/>
<path fill="#69FBCA" opacity="1.000000" stroke="none" 
	d="
M169.013184,257.002441 
	C169.009293,247.314377 169.005402,237.626297 169.004837,227.469727 
	C171.181183,226.426361 173.340195,225.789673 175.531113,225.293884 
	C177.757584,224.790070 180.013962,224.064728 182.259857,224.055237 
	C204.225647,223.962540 226.192337,224.070297 248.157913,223.955994 
	C254.713669,223.921875 261.265259,223.332840 267.821564,223.067917 
	C271.692474,222.911514 274.533417,224.498306 275.959229,228.635986 
	C275.186981,229.910522 274.375153,230.824829 272.931641,231.833191 
	C270.502533,230.919235 268.705078,229.911224 266.907623,228.903198 
	C266.704803,229.173019 266.501984,229.442841 266.299133,229.712662 
	C267.204712,231.482132 268.110291,233.251587 269.015869,235.021057 
	C260.876556,243.581833 252.737213,252.142609 244.226883,260.482727 
	C242.088425,260.147675 240.277420,260.231476 238.567459,259.855560 
	C237.220673,259.559479 235.828476,258.893585 234.794281,258.000641 
	C234.295044,257.569611 234.237122,255.598099 234.559845,255.428497 
	C235.746674,254.804703 237.168121,254.415588 238.517090,254.365799 
	C240.183472,254.304306 241.865585,254.669357 243.882385,254.886932 
	C243.566605,251.178024 242.642380,249.447906 239.139023,250.375198 
	C237.253998,250.874130 235.220779,250.964005 233.253036,250.974289 
	C222.787140,251.028946 212.320145,251.065720 201.854996,250.961212 
	C198.581223,250.928513 195.970612,251.184372 193.760086,254.353485 
	C192.629486,255.974335 189.479568,256.755219 187.184143,256.884705 
	C181.144180,257.225433 175.072327,257.001495 169.013184,257.002441 
z"/>
<path fill="#69FBCA" opacity="1.000000" stroke="none" 
	d="
M324.956299,249.015259 
	C320.504974,245.143829 316.010590,241.320435 311.616699,237.384842 
	C308.437622,234.537415 305.391968,231.541061 302.140198,228.312210 
	C303.085876,225.856674 303.979187,223.566559 305.315704,221.573685 
	C307.487823,218.334869 310.022491,222.285126 311.821228,221.649658 
	C317.410858,219.674942 321.935974,223.620453 326.770050,223.737061 
	C350.245544,224.303223 373.742310,224.020782 397.231262,223.947418 
	C399.688324,223.939743 402.136566,223.260986 404.601013,223.014771 
	C409.098083,222.565506 411.758392,224.121872 411.013245,229.603592 
	C405.782776,235.823074 400.545502,241.614990 394.912781,247.869202 
	C394.345367,248.885376 394.173370,249.439224 394.001404,249.993088 
	C393.513794,250.260605 393.026184,250.528137 391.976013,250.755875 
	C389.605011,248.889847 387.796631,247.063629 385.390564,244.633820 
	C384.776184,246.960648 384.553955,248.567490 383.910309,249.982697 
	C383.447815,250.999588 382.290009,252.598373 381.669769,252.500229 
	C377.519653,251.843597 373.469208,250.353531 369.312134,249.994583 
	C363.837067,249.521835 357.865387,248.538437 352.897247,250.174118 
	C347.666840,251.896194 343.290039,252.150986 338.125183,250.759399 
	C333.904785,249.622269 329.740723,246.386948 324.956299,249.015259 
M406.294281,228.436157 
	C406.010681,228.706741 405.727051,228.977341 405.443451,229.247940 
	C405.555634,229.365326 405.759216,229.590973 405.766846,229.584518 
	C406.065948,229.331985 406.347260,229.058304 406.294281,228.436157 
z"/>
<path fill="#79F7E2" opacity="1.000000" stroke="none" 
	d="
M432.998749,127.581535 
	C432.999207,130.377808 432.998383,132.745239 432.992310,135.556641 
	C424.463409,135.333740 415.943542,134.154266 407.415466,134.091644 
	C375.987946,133.860901 344.557526,133.936523 313.128693,134.044983 
	C305.349945,134.071823 297.573090,134.656525 289.400757,134.991791 
	C289.333588,129.878815 289.131134,124.648376 290.167633,119.676216 
	C290.906250,116.133179 293.014648,112.728874 295.140961,109.705093 
	C295.843170,108.706459 299.123322,108.242729 300.166565,108.997345 
	C303.517975,111.421577 306.756226,112.420738 310.761566,111.068542 
	C311.958679,110.664398 313.405792,110.998245 314.738373,110.998222 
	C346.720581,110.997757 378.703125,111.059090 410.684326,110.880203 
	C413.209229,110.866081 416.082184,109.680550 418.173706,108.177254 
	C423.234131,104.540039 428.003448,105.499031 429.908569,111.625824 
	C431.466827,116.637070 432.006348,121.965103 432.998749,127.581535 
z"/>
<path fill="#2CA673" opacity="1.000000" stroke="none" 
	d="
M554.718384,336.130890 
	C554.854675,336.342010 554.689453,336.596069 554.214478,336.885223 
	C554.098572,336.683746 554.269226,336.434906 554.718384,336.130890 
z"/>
<path fill="#47D69A" opacity="1.000000" stroke="none" 
	d="
M434.006958,416.794403 
	C434.014496,423.068512 434.018097,429.072937 433.590881,435.539368 
	C425.634003,435.667542 418.108551,435.062286 410.581787,435.045349 
	C370.050629,434.954102 329.519165,435.008972 288.987793,435.013428 
	C288.653107,429.645630 288.318451,424.277863 287.987915,418.456848 
	C288.163574,417.444580 288.335083,416.885498 289.109314,416.316589 
	C294.434631,416.537842 299.157013,416.963348 303.879913,416.969513 
	C344.637634,417.022552 385.395447,417.018677 426.153137,416.956573 
	C428.766968,416.952606 431.379852,416.323700 433.993164,415.985535 
	C433.996429,416.165253 433.999725,416.345001 434.006958,416.794403 
z"/>
<path fill="#41CF93" opacity="1.000000" stroke="none" 
	d="
M433.996765,415.543579 
	C431.379852,416.323700 428.766968,416.952606 426.153137,416.956573 
	C385.395447,417.018677 344.637634,417.022552 303.879913,416.969513 
	C299.157013,416.963348 294.434631,416.537842 289.354187,416.145386 
	C288.997681,412.490631 289.210785,408.981171 288.946503,405.507996 
	C288.619812,401.215393 290.720978,399.945923 294.574707,399.975952 
	C304.388794,400.052368 314.206055,400.128296 324.017883,399.960266 
	C332.129669,399.821320 340.235657,399.066864 348.343842,399.073395 
	C356.895630,399.080261 365.444550,399.841125 373.999023,399.956665 
	C386.221710,400.121735 398.448883,400.069519 410.672852,399.963135 
	C415.128052,399.924377 419.579895,399.469757 424.032684,399.195679 
	C429.609070,398.852478 433.167694,402.717712 433.950195,410.114044 
	C434.124298,411.759888 433.991699,413.438232 433.996765,415.543579 
z"/>
<path fill="#1F9060" opacity="1.000000" stroke="none" 
	d="
M493.925781,264.355469 
	C494.015167,265.093964 493.801788,265.816895 493.588440,266.539825 
	C493.199829,266.399170 492.811218,266.258514 492.422546,266.117859 
	C492.822723,265.525177 493.222900,264.932526 493.925781,264.355469 
z"/>
<path fill="#269F6C" opacity="1.000000" stroke="none" 
	d="
M475.549469,278.468445 
	C475.582153,278.523621 475.516785,278.413239 475.549469,278.468445 
z"/>
<path fill="#4EE6A6" opacity="1.000000" stroke="none" 
	d="
M433.012207,454.007324 
	C433.012482,458.173523 432.789703,462.354828 433.070618,466.502014 
	C433.406708,471.463440 430.839386,473.026398 426.471130,473.013855 
	C420.971771,472.998077 415.472351,473.012054 409.972961,473.012085 
	C377.976501,473.012299 345.980011,472.979919 313.983643,473.037292 
	C306.929321,473.049927 299.866302,473.621735 292.829773,473.350983 
	C291.498718,473.299744 289.358826,470.583740 289.175507,468.922577 
	C288.666656,464.312134 288.992493,459.609589 289.460510,454.472809 
	C337.625702,454.003906 385.318939,454.005615 433.012207,454.007324 
z"/>
<path fill="#4ADEA0" opacity="1.000000" stroke="none" 
	d="
M433.013977,453.567078 
	C385.318939,454.005615 337.625702,454.003906 289.463074,454.005371 
	C288.989532,447.988007 288.985413,441.967438 288.984528,435.480164 
	C329.519165,435.008972 370.050629,434.954102 410.581787,435.045349 
	C418.108551,435.062286 425.634003,435.667542 433.585999,436.008606 
	C433.679871,441.719513 433.347809,447.423187 433.013977,453.567078 
z"/>
<path fill="#5EFEBB" opacity="1.000000" stroke="none" 
	d="
M235.351959,356.076691 
	C232.799438,356.075836 230.458069,356.001465 228.116669,355.999969 
	C211.819183,355.989624 195.521545,356.025116 179.224380,355.953979 
	C177.267960,355.945465 175.288940,355.021881 173.363983,355.154633 
	C169.251160,355.438232 168.907974,353.242554 168.939835,349.938599 
	C169.072937,336.136932 169.004913,322.333191 168.973618,308.530273 
	C168.969879,306.886536 168.739426,305.243317 168.332214,303.294617 
	C168.057281,299.304535 168.064194,295.619659 168.508209,291.471680 
	C174.432281,290.672333 179.916138,290.126404 185.406891,290.044983 
	C195.865189,289.889862 206.327454,289.985474 216.788010,290.008881 
	C219.920090,290.015900 222.971802,290.412506 225.020905,286.918549 
	C225.572174,285.978577 228.439285,285.568512 229.694519,286.133789 
	C230.685028,286.579865 231.436600,288.982635 231.237350,290.363892 
	C230.738373,293.822906 231.169800,296.327911 235.114410,297.013214 
	C235.238174,305.460938 235.361923,313.908661 235.680786,323.165771 
	C235.909286,331.655884 235.942657,339.336639 235.944672,347.465088 
	C235.938431,350.601074 235.963577,353.289398 235.988724,355.977692 
	C235.988724,355.977692 235.563095,356.036865 235.351959,356.076691 
z"/>
<path fill="#63FCC3" opacity="1.000000" stroke="none" 
	d="
M235.142670,296.544617 
	C231.169800,296.327911 230.738373,293.822906 231.237350,290.363892 
	C231.436600,288.982635 230.685028,286.579865 229.694519,286.133789 
	C228.439285,285.568512 225.572174,285.978577 225.020905,286.918549 
	C222.971802,290.412506 219.920090,290.015900 216.788010,290.008881 
	C206.327454,289.985474 195.865189,289.889862 185.406891,290.044983 
	C179.916138,290.126404 174.432281,290.672333 168.533554,291.012939 
	C168.414001,279.964630 168.706207,268.911865 169.005798,257.430786 
	C175.072327,257.001495 181.144180,257.225433 187.184143,256.884705 
	C189.479568,256.755219 192.629486,255.974335 193.760086,254.353485 
	C195.970612,251.184372 198.581223,250.928513 201.854996,250.961212 
	C212.320145,251.065720 222.787140,251.028946 233.253036,250.974289 
	C235.220779,250.964005 237.253998,250.874130 239.139023,250.375198 
	C242.642380,249.447906 243.566605,251.178024 243.882385,254.886932 
	C241.865585,254.669357 240.183472,254.304306 238.517090,254.365799 
	C237.168121,254.415588 235.746674,254.804703 234.559845,255.428497 
	C234.237122,255.598099 234.295044,257.569611 234.794281,258.000641 
	C235.828476,258.893585 237.220673,259.559479 238.567459,259.855560 
	C240.277420,260.231476 242.088425,260.147675 243.925583,260.623108 
	C240.847900,264.199402 237.700500,267.414673 234.115295,270.906555 
	C233.612625,271.289062 233.469788,271.458252 233.495819,271.490295 
	C233.644745,271.673584 233.833801,271.824280 234.009232,271.986023 
	C234.031906,272.489044 234.054565,272.992065 234.291275,274.059662 
	C235.008820,274.758057 235.512299,274.891846 236.015793,275.025665 
	C236.015793,275.025665 235.996109,275.007782 235.981842,275.008179 
	C235.702042,282.031067 235.436493,289.053528 235.142670,296.544617 
z"/>
<path fill="#34B67E" opacity="1.000000" stroke="none" 
	d="
M236.268921,355.799744 
	C235.963577,353.289398 235.938431,350.601074 236.239075,347.181335 
	C236.856934,343.453827 237.149002,340.457764 237.400146,337.881653 
	C240.626938,338.300659 243.326401,338.985107 246.011490,338.932648 
	C252.261612,338.810608 258.504181,338.088684 264.750977,338.073334 
	C270.334167,338.059601 275.915039,338.822571 281.503906,338.959412 
	C288.044128,339.119568 289.528656,337.595154 290.003662,331.015442 
	C292.098022,333.058655 294.207703,335.086517 296.281830,337.150085 
	C297.876556,338.736633 299.366364,340.432739 301.010651,341.964355 
	C303.432129,344.219971 305.949585,346.372589 308.699280,348.767792 
	C308.978607,349.140350 308.984833,349.314178 308.996521,350.077881 
	C309.004791,351.106598 309.007568,351.545471 308.871704,352.041870 
	C308.827240,352.062775 308.921387,352.026184 309.253296,351.989777 
	C309.491028,351.989960 309.966522,351.992767 309.966522,351.992737 
	C310.430634,351.994019 310.894775,351.995270 311.708130,351.989136 
	C312.057373,351.981750 312.509064,351.984283 312.734375,351.987854 
	C313.476379,353.607788 313.993011,355.224121 314.717499,357.490662 
	C313.374237,357.167664 312.501373,357.112701 311.776764,356.756317 
	C308.871460,355.327576 306.344666,354.622833 302.705963,355.611359 
	C298.211548,356.832397 293.147217,356.066406 288.332520,355.977081 
	C273.253510,355.697327 258.176666,355.301514 243.097473,355.034088 
	C240.918854,354.995453 238.732101,355.414520 236.268921,355.799744 
z"/>
<path fill="#2EAF79" opacity="1.000000" stroke="none" 
	d="
M289.856293,330.710693 
	C289.528656,337.595154 288.044128,339.119568 281.503906,338.959412 
	C275.915039,338.822571 270.334167,338.059601 264.750977,338.073334 
	C258.504181,338.088684 252.261612,338.810608 246.011490,338.932648 
	C243.326401,338.985107 240.626938,338.300659 237.400146,337.881653 
	C237.149002,340.457764 236.856934,343.453827 236.270447,346.733612 
	C235.942657,339.336639 235.909286,331.655884 235.903259,323.512115 
	C236.156540,322.809265 236.519913,322.603271 236.588379,322.324768 
	C238.388199,315.002533 238.385666,315.124939 246.042343,314.959412 
	C251.497986,314.841492 257.048615,314.881653 262.372467,313.875549 
	C270.784302,312.285919 275.959778,317.251495 281.330750,322.050323 
	C284.267548,324.674286 286.925323,327.610504 289.856293,330.710693 
z"/>
<path fill="#63FCC3" opacity="1.000000" stroke="none" 
	d="
M324.976685,249.380127 
	C329.740723,246.386948 333.904785,249.622269 338.125183,250.759399 
	C343.290039,252.150986 347.666840,251.896194 352.897247,250.174118 
	C357.865387,248.538437 363.837067,249.521835 369.312134,249.994583 
	C373.469208,250.353531 377.519653,251.843597 381.669769,252.500229 
	C382.290009,252.598373 383.447815,250.999588 383.910309,249.982697 
	C384.553955,248.567490 384.776184,246.960648 385.390564,244.633820 
	C387.796631,247.063629 389.605011,248.889847 391.719055,250.863770 
	C389.926056,253.318970 387.827393,255.626465 385.220398,257.680054 
	C383.482513,257.610748 382.253021,257.795349 381.023499,257.979950 
	C381.348999,259.319550 381.674500,260.659180 382.000000,261.998779 
	C375.289764,268.905884 368.641754,275.876343 361.774261,282.623383 
	C361.076508,283.308899 358.547150,283.230499 357.736694,282.518066 
	C353.287323,278.606842 349.098236,274.398376 344.840302,270.270813 
	C340.759857,266.315308 336.632294,262.404449 332.663269,258.339355 
	C329.984131,255.595398 327.544037,252.617981 324.976685,249.380127 
M348.502747,254.177261 
	C348.133667,254.862869 347.764587,255.548477 347.395508,256.234100 
	C347.959900,256.383972 348.524323,256.533844 349.088684,256.683716 
	C349.118256,255.900650 349.147797,255.117569 348.502747,254.177261 
M339.069397,256.255585 
	C338.444885,256.721893 337.820343,257.188202 337.195801,257.654510 
	C337.484436,257.968048 337.773102,258.281586 338.061737,258.595123 
	C338.558868,257.957397 339.056000,257.319702 339.069397,256.255585 
z"/>
<path fill="#69FBCA" opacity="1.000000" stroke="none" 
	d="
M382.297363,261.858154 
	C381.674500,260.659180 381.348999,259.319550 381.023499,257.979950 
	C382.253021,257.795349 383.482513,257.610748 384.862030,257.726440 
	C384.206238,259.256958 383.400482,260.487244 382.297363,261.858154 
z"/>
<path fill="#6FF9CF" opacity="1.000000" stroke="none" 
	d="
M269.343201,234.984695 
	C268.110291,233.251587 267.204712,231.482132 266.299133,229.712662 
	C266.501984,229.442841 266.704803,229.173019 266.907623,228.903198 
	C268.705078,229.911224 270.502533,230.919235 272.651917,231.965515 
	C271.892761,232.985291 270.781616,233.966812 269.343201,234.984695 
z"/>
<path fill="#6FF9CF" opacity="1.000000" stroke="none" 
	d="
M394.246277,249.826691 
	C394.173370,249.439224 394.345367,248.885376 394.764221,248.166260 
	C394.837799,248.554092 394.664459,249.107193 394.246277,249.826691 
z"/>
<path fill="#2CA673" opacity="1.000000" stroke="none" 
	d="
M235.832443,274.829529 
	C235.512299,274.891846 235.008820,274.758057 234.326462,274.435699 
	C234.648102,274.375916 235.148590,274.504669 235.832443,274.829529 
z"/>
<path fill="#6FF9CF" opacity="1.000000" stroke="none" 
	d="
M234.011536,271.745453 
	C233.833801,271.824280 233.644745,271.673584 233.495819,271.490295 
	C233.469788,271.458252 233.612625,271.289062 233.847855,271.103455 
	C234.018234,271.023743 234.013855,271.504883 234.011536,271.745453 
z"/>
<path fill="#34B67E" opacity="1.000000" stroke="none" 
	d="
M316.445068,359.358643 
	C316.312988,358.708313 316.372070,358.254944 316.431122,357.801544 
	C316.803741,358.001129 317.176331,358.200714 317.548950,358.400269 
	C317.244690,358.785370 316.940430,359.170471 316.445068,359.358643 
z"/>
<path fill="#2CA673" opacity="1.000000" stroke="none" 
	d="
M309.010315,351.984375 
	C309.007568,351.545471 309.004791,351.106598 309.001007,350.338745 
	C309.314636,350.474030 309.629242,350.938324 309.955200,351.697693 
	C309.966522,351.992767 309.491028,351.989960 309.245514,351.994995 
	C309.000000,352.000000 309.010345,351.984375 309.010315,351.984375 
z"/>
<path fill="#6FF9CF" opacity="1.000000" stroke="none" 
	d="
M406.462585,228.611786 
	C406.347260,229.058304 406.065948,229.331985 405.766846,229.584518 
	C405.759216,229.590973 405.555634,229.365326 405.443420,229.247925 
	C405.727051,228.977341 406.010681,228.706741 406.462585,228.611786 
z"/>
<path fill="#3EB885" opacity="1.000000" stroke="none" 
	d="
M309.007782,351.994812 
	C308.921387,352.026184 308.827240,352.062775 308.871704,352.041870 
	C309.010345,351.984375 309.000000,352.000000 309.007782,351.994812 
z"/>
<path fill="#69FBCA" opacity="1.000000" stroke="none" 
	d="
M348.840057,254.255890 
	C349.147797,255.117569 349.118256,255.900650 349.088684,256.683716 
	C348.524323,256.533844 347.959900,256.383972 347.395508,256.234100 
	C347.764587,255.548477 348.133667,254.862869 348.840057,254.255890 
z"/>
<path fill="#69FBCA" opacity="1.000000" stroke="none" 
	d="
M339.311279,256.468811 
	C339.056000,257.319702 338.558868,257.957397 338.061737,258.595123 
	C337.773102,258.281586 337.484436,257.968048 337.195801,257.654541 
	C337.820343,257.188202 338.444885,256.721893 339.311279,256.468811 
z"/>
</svg>